<svg width="223" height="47" fill="none" xmlns="http://www.w3.org/2000/svg"><path d="M46.9 36H43l9.66-21.36h3.15L65.47 36h-3.84l-7.86-18.36h1.05L46.9 36zm.36-5.01l1.47-3h10.89l1.41 3H47.26zM67.78 36V14.64h9.15c2.42 0 4.26.53 5.52 1.59 1.26 1.06 1.89 2.58 1.89 4.56 0 1.88-.65 3.38-1.95 4.5-1.3 1.1-3.11 1.65-5.43 1.65l2.4-.48c.74 0 1.4.22 1.98.66.58.44 1.04 1.12 1.38 2.04L85.36 36h-4.08l-2.7-7.11c-.28-.7-.68-1.17-1.2-1.41-.5-.24-1.13-.36-1.89-.36h-3.9V36h-3.81zm3.78-11.88h4.83c1.48 0 2.56-.27 3.24-.81.68-.54 1.02-1.35 1.02-2.43 0-1.1-.34-1.91-1.02-2.43-.68-.52-1.76-.78-3.24-.78h-4.83v6.45zM102.646 36l-10.83-10.89 10.44-10.47h4.68L95.355 26.1l.27-2.13L107.385 36h-4.74zm-13.8 0V14.64h3.87V36h-3.87zm19.981 0V14.64h3.87V36h-3.87zm8.585 0V14.64h3.09l8.07 18.39h-1.47l8.01-18.39h3.09V36h-3.45l-.03-15.81 1.02.24-6.66 15.57h-2.55l-6.81-15.57 1.08-.24.03 15.81h-3.42zm34.908.24c-2.08 0-3.88-.44-5.4-1.32-1.52-.88-2.69-2.14-3.51-3.78-.82-1.64-1.23-3.58-1.23-5.82 0-2.26.41-4.2 1.23-5.82.82-1.64 1.99-2.9 3.51-3.78 1.52-.88 3.32-1.32 5.4-1.32 2.1 0 3.91.44 5.43 1.32 1.52.88 2.69 2.14 3.51 3.78.82 1.62 1.23 3.55 1.23 5.79 0 2.26-.42 4.21-1.26 5.85-.82 1.64-1.99 2.9-3.51 3.78-1.5.88-3.3 1.32-5.4 1.32zm0-3.06c1.96 0 3.5-.67 4.62-2.01 1.12-1.36 1.68-3.32 1.68-5.88s-.56-4.5-1.68-5.82c-1.12-1.34-2.66-2.01-4.62-2.01-1.94 0-3.47.67-4.59 2.01-1.12 1.32-1.68 3.26-1.68 5.82 0 2.56.56 4.52 1.68 5.88 1.12 1.34 2.65 2.01 4.59 2.01zM166.453 36V14.64h2.88l12.3 15.99-.81.42V14.64h3.63V36h-2.91l-12.24-15.93.78-.48V36h-3.63z" fill="#000"/><g clip-path="url(#clip0)"><path d="M3.656 0h20.117v16.3h7.235V47H0V0h3.656zm20.04 23.535H7.304v16.231h16.39V23.535zM16.46 7.234H7.305V16.3h9.156V7.234z" fill="#FDAE54"/></g><defs><clipPath id="clip0"><path fill="#fff" d="M0 0h31v47H0z"/></clipPath></defs></svg>