<svg width="60" height="61" fill="none" xmlns="http://www.w3.org/2000/svg"><g clip-path="url(#clip0)" fill="#000"><path d="M12.54 22.332c0 9.693 7.884 17.578 17.577 17.578 9.693 0 17.578-7.885 17.578-17.578S39.81 4.754 30.117 4.754 12.54 12.639 12.54 22.332zM30.116 7.098c8.4 0 15.235 6.834 15.235 15.234s-6.834 15.234-15.235 15.234c-8.4 0-15.234-6.834-15.234-15.234S21.717 7.098 30.117 7.098z"/><path d="M19.265 20.243l4.542 4.475-1.045 6.29a1.172 1.172 0 001.696 1.233l5.66-2.939 5.658 2.939a1.171 1.171 0 001.696-1.232l-1.045-6.29 4.542-4.476a1.171 1.171 0 00-.648-1.994l-6.304-.949-2.852-5.704a1.171 1.171 0 00-2.096 0L26.217 17.3l-6.304.95a1.172 1.172 0 00-.648 1.993zm7.902-.716a1.17 1.17 0 00.874-.634l2.076-4.152 2.076 4.152c.17.34.497.578.874.634l4.588.691-3.306 3.257a1.173 1.173 0 00-.334 1.027l.76 4.578-4.118-2.138a1.17 1.17 0 00-1.08 0l-4.119 2.138.76-4.578a1.171 1.171 0 00-.333-1.027l-3.306-3.257 4.588-.69zM31.29 1.238a1.172 1.172 0 11-2.344 0 1.172 1.172 0 012.343 0z"/><path d="M24.594.757C14.736 3.274 7.852 12.146 7.852 22.332c0 6.327 2.66 12.288 7.33 16.51l-7.06 12.443a1.172 1.172 0 001.257 1.726l8.017-1.665 2.818 7.94a1.172 1.172 0 002.123.188l7.78-13.678 7.78 13.678a1.172 1.172 0 002.123-.188l2.818-7.94 8.017 1.665a1.173 1.173 0 001.258-1.726l-7.06-12.443a22.196 22.196 0 007.33-16.51c0-10.187-6.885-19.058-16.743-21.575a1.172 1.172 0 10-.58 2.271c8.82 2.251 14.98 10.19 14.98 19.304 0 11.093-9.01 19.922-19.923 19.922-10.92 0-19.922-8.836-19.922-19.922 0-9.114 6.16-17.053 14.979-19.304a1.173 1.173 0 00-.58-2.27zM21.567 56.09l-2.303-6.49a1.172 1.172 0 00-1.343-.756l-6.483 1.346 5.587-9.847a22.312 22.312 0 0011.127 4.168L21.567 56.09zm20.746-7.246a1.172 1.172 0 00-1.343.756l-2.302 6.49-6.586-11.579a22.314 22.314 0 0011.127-4.168l5.588 9.847-6.484-1.346z"/></g><defs><clipPath id="clip0"><path fill="#fff" transform="translate(0 .066)" d="M0 0h60v60H0z"/></clipPath></defs></svg>