<svg width="60" height="59" fill="none" xmlns="http://www.w3.org/2000/svg"><g clip-path="url(#clip0)" fill="#000"><path d="M58.881 41.204l-2.788-2.743a1.15 1.15 0 00-1.616.007 1.126 1.126 0 00.007 1.602l2.788 2.742a1.143 1.143 0 001.615-.006 1.126 1.126 0 00-.006-1.602zm-5.629-5.549a1.15 1.15 0 00-1.616 0l-.002.002a1.125 1.125 0 00.001 1.601 1.146 1.146 0 001.617-.001 1.127 1.127 0 000-1.602z"/><path d="M43.511 40.88l11.084-10.992a4.25 4.25 0 000-6.038 4.288 4.288 0 00-2.076-1.14 4.24 4.24 0 00-.862-4.818 4.284 4.284 0 00-2.312-1.188 4.248 4.248 0 00-1.043-4.357 4.293 4.293 0 00-2.31-1.185 4.24 4.24 0 00.216-1.34 4.23 4.23 0 00-1.26-3.02 4.296 4.296 0 00-3.045-1.25c-.73 0-1.433.18-2.056.517l-.11-.118a7.654 7.654 0 00-5.564-2.402H25.2c-.631 0-1.143.507-1.143 1.133v1.486c0 .594.102 1.173.296 1.718A4.331 4.331 0 0022.7 7.56c-1.15 0-2.231.444-3.044 1.25a4.248 4.248 0 00-1.042 4.36 4.293 4.293 0 00-2.313 1.185 4.244 4.244 0 00-1.045 4.357 4.285 4.285 0 00-2.31 1.188 4.25 4.25 0 00-.861 4.816 4.287 4.287 0 00-2.077 1.142 4.25 4.25 0 000 6.038l2.28 2.26L1.066 45.285a1.126 1.126 0 000 1.603 1.144 1.144 0 001.616 0l11.33-11.236a4.3 4.3 0 002.127.557c1.15 0 2.231-.444 3.044-1.25a4.239 4.239 0 001.255-3.192 4.312 4.312 0 003.218-1.244 4.224 4.224 0 001.257-3.191c.058.002.115.004.172.004a4.311 4.311 0 003.045-1.249 4.224 4.224 0 001.256-3.191c.058.002.115.004.172.004a4.31 4.31 0 003.045-1.248 4.25 4.25 0 00.285-5.726l7.585-7.521a2.015 2.015 0 011.428-.587 2.015 2.015 0 012.02 2.004c0 .535-.21 1.038-.591 1.416l-1.118 1.11-4.058 4.023a1.127 1.127 0 000 1.602 1.146 1.146 0 001.616 0l4.057-4.023a2.035 2.035 0 012.858 0 1.994 1.994 0 010 2.833l-1.119 1.11-2.939 2.914a1.126 1.126 0 000 1.602 1.146 1.146 0 001.616 0l2.939-2.914a2.015 2.015 0 011.429-.587 2.016 2.016 0 012.02 2.003 1.98 1.98 0 01-.592 1.417l-1.535 1.522-1.404 1.392a1.127 1.127 0 000 1.603 1.146 1.146 0 001.616 0l1.405-1.393a2.035 2.035 0 012.856 0 1.994 1.994 0 010 2.834L41.894 39.278a15.54 15.54 0 01-10.415 4.5 1.14 1.14 0 00-.768.332L20.47 54.3a1.126 1.126 0 00.004 1.602c.223.22.514.33.806.33.293 0 .587-.11.81-.332l7.53-7.496a10.688 10.688 0 006.45 1.645l5.895 5.846a1.149 1.149 0 001.616 0 1.126 1.126 0 000-1.603l-6.267-6.215a1.148 1.148 0 00-.901-.328l-.363.029a8.398 8.398 0 01-4.767-1.03l.734-.73a17.82 17.82 0 0011.493-5.14zM17.57 33.355c-.382.38-.89.587-1.429.587a2.01 2.01 0 01-1.428-.587l-3.088-3.06a1.994 1.994 0 010-2.834 2.015 2.015 0 011.43-.587c.539 0 1.046.208 1.428.587l3.087 3.06a1.994 1.994 0 010 2.834zm4.473-4.436a2.035 2.035 0 01-2.857 0l-3.088-3.061-1.535-1.522a1.994 1.994 0 010-2.834 2.02 2.02 0 011.429-.587c.54 0 1.047.209 1.428.587l4.623 4.584c.382.378.592.882.592 1.417s-.21 1.038-.592 1.416zm4.473-4.435a2.035 2.035 0 01-2.857 0l-5.74-5.693a1.982 1.982 0 01-.593-1.417c0-.535.21-1.038.592-1.416.394-.391.912-.586 1.429-.586s1.034.195 1.427.585l2.617 2.594 3.125 3.1c.381.378.592.88.592 1.416a1.98 1.98 0 01-.592 1.417zm4.473-4.436a2.035 2.035 0 01-2.857 0l-5.74-5.693-.003-.002-1.116-1.107a1.994 1.994 0 010-2.833 2.021 2.021 0 011.429-.586c.517 0 1.035.195 1.428.586l6.859 6.801c.382.379.592.882.592 1.417s-.21 1.038-.592 1.417zm.3-5.74l-3.137-3.112c.355.075.721.115 1.094.115h.025l3.135-.015a1.138 1.138 0 001.137-1.138A1.138 1.138 0 0032.4 9.03h-.005l-3.136.015h-.014c-.773 0-1.5-.298-2.047-.838a2.847 2.847 0 01-.855-2.04v-.353h7.83c1.47 0 2.888.612 3.89 1.68l.047.05-6.821 6.764z"/></g><defs><clipPath id="clip0"><path fill="#fff" transform="translate(.732 .891)" d="M0 0h58.487v58H0z"/></clipPath></defs></svg>