<svg width="68" height="68" fill="none" xmlns="http://www.w3.org/2000/svg"><path d="M44.437 39.77l-9.563-13.812a1.064 1.064 0 00-1.748 0l-9.562 13.813a1.061 1.061 0 00-.134.94l2.72 8.164h-.65a1.062 1.062 0 00-1.062 1.063v3.187a1.062 1.062 0 001.062 1.063h1.063v11.687a1.062 1.062 0 001.062 1.063h12.75a1.062 1.062 0 001.063-1.063V54.188H42.5a1.062 1.062 0 001.063-1.063v-3.187a1.063 1.063 0 00-1.063-1.063h-.65l2.72-8.164a1.061 1.061 0 00-.133-.94zM34 38.25a1.062 1.062 0 110 2.125 1.062 1.062 0 010-2.125zm5.313 26.563H28.688V54.188h10.625v10.625zm2.125-12.75H26.563V51h14.875v1.063zm-1.83-3.188H28.392l-2.778-8.331 7.325-10.58v6.161c0 .06.005.12.015.178a3.187 3.187 0 102.094 0c.01-.059.015-.118.016-.178v-6.161l7.324 10.58-2.778 8.331z" fill="#000"/><path d="M65.875 12.75h-4.25a1.062 1.062 0 00-1.063 1.063v1.071a1.092 1.092 0 00-.132-.009H37.188v-1.063a1.062 1.062 0 00-1.063-1.062h-1.063V7.437h1.063a1.063 1.063 0 001.063-1.062v-4.25a1.062 1.062 0 00-1.063-1.063h-4.25a1.063 1.063 0 00-1.063 1.063v4.25a1.062 1.062 0 001.063 1.063h1.063v5.312h-1.063a1.062 1.062 0 00-1.063 1.063v1.062H7.438v-1.063a1.063 1.063 0 00-1.062-1.062h-4.25a1.062 1.062 0 00-1.063 1.063v4.25a1.063 1.063 0 001.063 1.062h4.25a1.062 1.062 0 001.063-1.063V17h17.565a16.62 16.62 0 00-3.717 3.367C18.562 23.67 17 27.864 17 31.875h-1.063a1.062 1.062 0 00-1.062 1.063v4.25a1.062 1.062 0 001.063 1.062h4.25a1.062 1.062 0 001.062-1.063v-4.25a1.062 1.062 0 00-1.063-1.062h-1.062c0-7.878 6.062-14.093 11.688-14.806v.994a1.062 1.062 0 001.062 1.062h4.25a1.062 1.062 0 001.063-1.063v-.997c2.876.341 5.637 2.065 7.866 4.94 2.169 2.796 3.546 6.417 3.784 9.87h-1.026a1.062 1.062 0 00-1.062 1.063v4.25a1.062 1.062 0 001.063 1.062h4.25a1.062 1.062 0 001.062-1.063v-4.25a1.062 1.062 0 00-1.063-1.062h-1.095c-.233-3.946-1.745-7.965-4.233-11.172A16.788 16.788 0 0042.83 17h17.6c.045 0 .09-.003.133-.01v1.073a1.062 1.062 0 001.063 1.062h4.25a1.062 1.062 0 001.063-1.063v-4.25a1.062 1.062 0 00-1.063-1.062zM5.312 17H3.188v-2.125h2.126V17zm13.813 19.125H17V34h2.125v2.125zM32.938 3.187h2.124v2.126h-2.124V3.188zM35.062 17h-2.124v-2.125h2.124V17zm13.813 17H51v2.125h-2.125V34zm15.938-17h-2.126v-2.125h2.126V17z" fill="#000"/></svg>