<svg width="575" height="779" fill="none" xmlns="http://www.w3.org/2000/svg"><g clip-path="url(#clip0)"><path d="M301.43 0H56.042v621.492H301.43V0z" fill="#fff"/><path d="M217.841 113.545h-78.208v394.402h78.208V113.545z" fill="#FDAE54"/><path d="M161.797 135.368h56.044v-21.823h-78.208v394.402h22.164V135.368zM301.43 621.492h194.094V191.666L301.43 0v621.492z" fill="#E4E4E4"/><path d="M575.002 621.492H217.843v157.824h357.159V621.492z" fill="#2D2D2D"/><path d="M301.432 621.492H83.592v39.535h217.84v-39.535z" fill="#3C3E3F"/><path d="M274.519 660.711H56.678v39.535h217.841v-39.535z" fill="#2E2F30"/><path d="M244.755 700.246H26.914v39.535h217.841v-39.535z" fill="#3C3E3F"/><path d="M217.841 739.781H0v39.535h217.841v-39.535z" fill="#2E2F30"/></g><defs><clipPath id="clip0"><path fill="#fff" d="M0 0h575v779H0z"/></clipPath></defs></svg>