<svg width="349" height="507" fill="none" xmlns="http://www.w3.org/2000/svg"><path d="M348.762 145.377V304.75H143.789V193.68l204.973-48.303z" fill="url(#paint0_linear)"/><path d="M65.31.469l283.452 144.907-204.973 48.303-37.432-14.465L65.311.469z" fill="url(#paint1_linear)"/><path d="M65.313.469L0 37.406V507h65.313V.469z" fill="url(#paint2_linear)"/><path d="M65.31.469l41.045 20.922V507H65.309V.469z" fill="url(#paint3_linear)"/><path d="M314.944 288.993v-135.35L106.357 50.063V21.392l242.405 123.985v151.365l-33.818-7.749z" fill="url(#paint4_linear)"/><path d="M314.944 153.643l33.818-8.266v151.365l-33.818-7.749v-135.35z" fill="url(#paint5_linear)"/><defs><linearGradient id="paint0_linear" x1="246.241" y1="180.421" x2="246.241" y2="294.828" gradientUnits="userSpaceOnUse"><stop stop-color="#3C3E3F"/><stop offset="1" stop-color="#1F2122"/></linearGradient><linearGradient id="paint1_linear" x1="83.467" y1="90.662" x2="244.57" y2="140.111" gradientUnits="userSpaceOnUse"><stop stop-color="#3C3E3F"/><stop offset="1" stop-color="#1F2122"/></linearGradient><linearGradient id="paint2_linear" x1="32.618" y1="16.534" x2="32.618" y2="508.184" gradientUnits="userSpaceOnUse"><stop stop-color="#3C3E3F"/><stop offset="1" stop-color="#1F2122"/></linearGradient><linearGradient id="paint3_linear" x1="94.933" y1="515.938" x2="80.437" y2="118.721" gradientUnits="userSpaceOnUse"><stop stop-color="#6D6E71"/><stop offset="1" stop-color="#58595C"/></linearGradient><linearGradient id="paint4_linear" x1="242.587" y1="510.549" x2="228.091" y2="113.332" gradientUnits="userSpaceOnUse"><stop stop-color="#6D6E71"/><stop offset="1" stop-color="#58595C"/></linearGradient><linearGradient id="paint5_linear" x1="342.472" y1="506.904" x2="327.976" y2="109.688" gradientUnits="userSpaceOnUse"><stop stop-color="#6D6E71"/><stop offset="1" stop-color="#58595C"/></linearGradient></defs></svg>