<svg width="58" height="59" fill="none" xmlns="http://www.w3.org/2000/svg"><g clip-path="url(#clip0)" fill="#000"><path d="M29 52.264a.904.904 0 01-.395-.09L.51 38.58a.907.907 0 01.79-1.633L29 50.352l27.699-13.403a.91.91 0 011.21.422.907.907 0 01-.421 1.21L29.394 52.175a.909.909 0 01-.394.09z"/><path d="M29 56.795a.904.904 0 01-.395-.09L.51 43.11a.907.907 0 01.79-1.632L29 54.882 56.699 41.48a.908.908 0 01.789 1.632L29.394 56.706a.909.909 0 01-.394.09z"/><path d="M.906 43.202A.905.905 0 010 42.294v-4.531a.905.905 0 111.813 0v4.531a.905.905 0 01-.907.907zm56.188 0a.905.905 0 01-.906-.907v-4.531a.905.905 0 111.812 0v4.531a.905.905 0 01-.906.907zM29 56.795a.905.905 0 01-.906-.906v-4.531a.905.905 0 111.812 0v4.531a.905.905 0 01-.906.906zm9.09-6.651a.91.91 0 01-.911-.906.9.9 0 01.9-.906h.01a.906.906 0 110 1.812zm13.594-6.577a.91.91 0 01-.911-.907c0-.5.4-.906.9-.906h.01a.906.906 0 110 1.813zm-4.532 2.192a.91.91 0 01-.91-.906c0-.502.4-.907.9-.907h.01a.906.906 0 110 1.813zm-4.531 2.193a.91.91 0 01-.91-.906.9.9 0 01.9-.906h.01a.906.906 0 110 1.812zm-9.062 4.385a.91.91 0 01-.911-.906c0-.5.4-.906.9-.906h.01a.906.906 0 110 1.813zm-13.594-2.193a.91.91 0 01-.911-.906.9.9 0 01.9-.906h.01a.906.906 0 110 1.812zM6.371 43.567a.91.91 0 01-.91-.907c0-.5.4-.906.9-.906h.01a.906.906 0 110 1.813zm4.531 2.192a.91.91 0 01-.91-.906c0-.502.4-.907.9-.907h.01a.906.906 0 110 1.813zm4.532 2.193a.91.91 0 01-.911-.906.9.9 0 01.9-.906h.01a.906.906 0 110 1.812zm9.062 4.385a.91.91 0 01-.91-.906c0-.5.4-.906.9-.906h.01a.906.906 0 110 1.813zm-8.29-21.068a.906.906 0 01-.395-1.722l3.732-1.805a.907.907 0 01.79 1.632L16.6 31.179a.92.92 0 01-.395.09z"/><path d="M.907 38.67a.906.906 0 01-.395-1.722l10.328-4.996a.907.907 0 01.79 1.632L1.3 38.58a.907.907 0 01-.394.09zm40.883-7.404a.903.903 0 01-.394-.09l-3.728-1.804a.907.907 0 01.79-1.632l3.727 1.803a.907.907 0 01-.395 1.723zm15.303 7.404a.905.905 0 01-.394-.09l-10.33-4.998a.907.907 0 01.79-1.633l10.329 4.998a.907.907 0 01-.395 1.723zM29 43.203a.908.908 0 01-.405-.095l-9.063-4.532a.907.907 0 01.812-1.621L29 41.284l8.657-4.33a.907.907 0 01.811 1.621l-9.062 4.533a.915.915 0 01-.406.095zm0-30.819a.908.908 0 01-.405-.095l-9.063-4.532a.907.907 0 01.812-1.621L29 10.465l8.657-4.33a.907.907 0 01.811 1.621l-9.062 4.533a.915.915 0 01-.406.095z"/><path d="M38.062 7.853a.909.909 0 01-.405-.095L29 3.428l-8.657 4.33a.907.907 0 01-.811-1.621l9.062-4.533a.906.906 0 01.811 0l9.063 4.532a.906.906 0 01-.406 1.717zM29 43.203a.905.905 0 01-.906-.906v-30.82a.905.905 0 111.812 0v30.82a.905.905 0 01-.906.906z"/><path d="M38.063 38.671a.905.905 0 01-.907-.906V6.945a.905.905 0 111.813 0v30.82a.905.905 0 01-.907.906zm-18.125 0a.905.905 0 01-.907-.906V6.945a.905.905 0 111.813 0v30.82a.905.905 0 01-.907.906zm6.342-1.363a.908.908 0 01-.405-.095L22.25 35.4a.907.907 0 01.812-1.622l3.625 1.814a.906.906 0 01-.407 1.716zm0-3.625a.908.908 0 01-.405-.095l-3.626-1.813a.907.907 0 01.812-1.622l3.625 1.814a.906.906 0 01-.407 1.716zm0-3.625a.908.908 0 01-.405-.095L22.25 28.15a.907.907 0 01.812-1.622l3.625 1.814a.906.906 0 01-.407 1.716zm0-3.625a.91.91 0 01-.405-.095l-3.626-1.813a.906.906 0 01.812-1.622l3.625 1.814a.906.906 0 01-.407 1.716zm0-3.625a.91.91 0 01-.405-.095L22.25 20.9a.907.907 0 01.812-1.622l3.625 1.814a.906.906 0 01-.407 1.716zm0-3.625a.91.91 0 01-.405-.095l-3.626-1.813a.907.907 0 01.812-1.622l3.625 1.814a.906.906 0 01-.407 1.716zm0-3.625a.908.908 0 01-.405-.095L22.25 13.65a.907.907 0 01.812-1.622l3.625 1.814a.906.906 0 01-.407 1.716zm5.44 21.75a.907.907 0 01-.406-1.717l3.626-1.813a.907.907 0 01.811 1.621l-3.626 1.813a.899.899 0 01-.404.096zm0-3.625a.907.907 0 01-.406-1.717l3.626-1.814a.907.907 0 01.811 1.621l-3.626 1.814a.897.897 0 01-.404.096zm0-3.625a.907.907 0 01-.406-1.717l3.626-1.814a.907.907 0 01.81 1.622l-3.625 1.813a.899.899 0 01-.404.096zm0-3.625a.907.907 0 01-.406-1.717l3.626-1.814a.907.907 0 01.81 1.622l-3.625 1.813a.897.897 0 01-.404.096zm0-3.625a.907.907 0 01-.406-1.717l3.626-1.814a.907.907 0 01.811 1.621l-3.626 1.814a.897.897 0 01-.404.096zm0-3.625a.907.907 0 01-.406-1.717l3.626-1.814a.907.907 0 01.81 1.622l-3.625 1.813a.899.899 0 01-.404.096zm0-3.625a.907.907 0 01-.406-1.717l3.626-1.814a.907.907 0 01.81 1.622l-3.625 1.813a.899.899 0 01-.404.096zm12.686 19.484a3.628 3.628 0 01-3.625-3.625c0-1.034 1.044-7.253 3.625-7.253s3.625 6.22 3.625 7.253c0 2-1.626 3.625-3.625 3.625zm0-9.046c-.716.44-1.812 3.927-1.812 5.422a1.814 1.814 0 003.625 0c0-1.495-1.097-4.982-1.813-5.422z"/><path d="M44.406 38.665a.905.905 0 01-.906-.907v-6.34a.905.905 0 111.813 0v6.34a.905.905 0 01-.907.907zm-30.812-3.623c-2 0-3.625-1.625-3.625-3.625 0-1.034 1.044-7.253 3.625-7.253 2.58 0 3.625 6.22 3.625 7.253 0 2-1.626 3.625-3.625 3.625zm0-9.046c-.716.44-1.813 3.927-1.813 5.422a1.814 1.814 0 003.625 0c0-1.495-1.096-4.982-1.812-5.422z"/><path d="M13.594 38.665a.905.905 0 01-.906-.907v-6.34a.905.905 0 111.812 0v6.34a.905.905 0 01-.906.907z"/></g><defs><clipPath id="clip0"><path fill="#fff" transform="translate(0 .152)" d="M0 0h58v58H0z"/></clipPath></defs></svg>